<?xml version="1.0" encoding="UTF-8"?>
<svg width="1863.7" height="1644.2" version="1.1" viewBox="0 0 1863.7226 1644.1708" xmlns="http://www.w3.org/2000/svg">
 <defs>
  <filter id="a" color-interpolation-filters="sRGB">
   <feGaussianBlur stdDeviation="6.9129591"/>
  </filter>
  <linearGradient id="ab" x1="380" x2="377" y1="719.36" y2="321.36" gradientTransform="translate(-123.51,-301.69)" gradientUnits="userSpaceOnUse">
   <stop stop-color="#00f" stop-opacity=".22" offset="0"/>
   <stop stop-color="#ff2a2a" stop-opacity=".22" offset="1"/>
  </linearGradient>
  <filter id="q" color-interpolation-filters="sRGB">
   <feGaussianBlur stdDeviation="0.66330707"/>
  </filter>
  <filter id="r" color-interpolation-filters="sRGB">
   <feGaussianBlur stdDeviation="0.6269987"/>
  </filter>
  <filter id="s" color-interpolation-filters="sRGB">
   <feGaussianBlur stdDeviation="0.64509725"/>
  </filter>
  <filter id="t" color-interpolation-filters="sRGB">
   <feGaussianBlur stdDeviation="2.2737536"/>
  </filter>
  <filter id="u" color-interpolation-filters="sRGB">
   <feGaussianBlur stdDeviation="1.5059357"/>
  </filter>
  <filter id="v" color-interpolation-filters="sRGB">
   <feGaussianBlur stdDeviation="2.2577343"/>
  </filter>
  <filter id="w" color-interpolation-filters="sRGB">
   <feGaussianBlur stdDeviation="1.491926"/>
  </filter>
  <filter id="x" color-interpolation-filters="sRGB">
   <feGaussianBlur stdDeviation="1.5129093"/>
  </filter>
  <radialGradient id="ae" cx="371.94" cy="526.27" r="211.48" gradientTransform="matrix(1.09 .026748 -.024534 .99977 -20.561 -9.8292)" gradientUnits="userSpaceOnUse">
   <stop stop-color="#fff" offset="0"/>
   <stop stop-color="#fff" stop-opacity=".49804" offset=".7644"/>
   <stop stop-color="#fff" stop-opacity="0" offset="1"/>
  </radialGradient>
  <mask id="ad" maskUnits="userSpaceOnUse">
   <path d="m372.06 314.69c-116.81 0-211.5 94.693-211.5 211.5s94.693 211.5 211.5 211.5 211.47-94.693 211.47-211.5-94.662-211.5-211.47-211.5zm0 134.34c42.608 0 77.125 34.548 77.125 77.156s-34.517 77.156-77.125 77.156-77.156-34.548-77.156-77.156 34.548-77.156 77.156-77.156z" color="#000000" fill="url(#ae)" opacity=".66"/>
  </mask>
  <filter id="y" x="-.1485" y="-1.188" width="1.297" height="3.376" color-interpolation-filters="sRGB">
   <feGaussianBlur stdDeviation="14.000713"/>
  </filter>
  <linearGradient id="ac" x1="432" x2="57" y1="34.12" y2="313.12" gradientUnits="userSpaceOnUse">
   <stop stop-color="#fff" offset="0"/>
   <stop stop-color="#fff" stop-opacity="0" offset="1"/>
  </linearGradient>
  <filter id="z" x="-.024373" y="-.084248" width="1.0487" height="1.1685" color-interpolation-filters="sRGB">
   <feGaussianBlur stdDeviation="2.1321451"/>
  </filter>
  <filter id="aa" x="-.030792" y="-.047775" width="1.0616" height="1.0956" color-interpolation-filters="sRGB">
   <feGaussianBlur stdDeviation="5.3100066"/>
  </filter>
 </defs>
 <g transform="translate(955.57 709.81)">
  <g transform="matrix(3.6062 0 0 3.4037 -1347.7 -1760.7)">
   <path d="m372.06 314.69c-116.81 0-211.5 94.693-211.5 211.5s94.693 211.5 211.5 211.5 211.47-94.693 211.47-211.5-94.662-211.5-211.47-211.5zm0 184.06c15.142 0 27.406 12.296 27.406 27.438s-12.265 27.406-27.406 27.406c-15.142 0-27.438-12.265-27.438-27.406 0-15.142 12.296-27.438 27.438-27.438z" color="#000000" fill="#ececec" opacity=".44" stroke="#4d4d4d" stroke-width="6"/>
   <path transform="translate(123.51,301.69)" d="m248.56 13c-116.8 0-211.5 94.69-211.5 211.5 2e-3 116.81 94.7 211.5 211.5 211.5 116.81 0 211.47-94.69 211.47-211.5s-94.66-211.5-211.47-211.5zm-0.03 143c37.83 0 68.5 30.67 68.5 68.5s-30.67 68.5-68.5 68.5-68.5-30.67-68.5-68.5 30.67-68.5 68.5-68.5z" color="#000000" fill="#f2f2f2"/>
   <path transform="translate(123.51,301.69)" d="m248.56 13c-116.8 0-211.5 94.69-211.5 211.5 2e-3 116.81 94.7 211.5 211.5 211.5 116.81 0 211.47-94.69 211.47-211.5s-94.66-211.5-211.47-211.5zm-0.03 135c42.25 0 76.5 34.25 76.5 76.5s-34.25 76.5-76.5 76.5-76.5-34.25-76.5-76.5 34.25-76.5 76.5-76.5z" color="#000000" fill="url(#ab)" opacity=".33"/>
   <path d="m371.55 469.68c-27.885 0-50.508 24.364-50.508 54.395 0 30.032 22.623 54.395 50.508 54.395s50.499-24.364 50.499-54.395c0-30.032-22.613-54.395-50.499-54.395zm0 1.5161c27.124 0 49.091 23.667 49.091 52.879 0 29.211-21.966 52.879-49.091 52.879-27.124 0-49.1-23.667-49.1-52.879 0-29.211 21.975-52.879 49.1-52.879z" color="#000000" fill="#ccc" opacity=".44" style="block-progression:tb;text-indent:0;text-transform:none"/>
   <path d="m371.55 454.11c-35.848 0-64.965 31.358-64.965 69.965s29.117 69.965 64.965 69.965 64.953-31.358 64.953-69.965-29.106-69.965-64.953-69.965zm0 5.2913c33.194 0 60.04 28.925 60.04 64.674s-26.846 64.674-60.04 64.674-60.052-28.925-60.052-64.674 26.858-64.674 60.052-64.674z" color="#000000" opacity=".44" style="block-progression:tb;text-indent:0;text-transform:none"/>
   <path d="m371.55 460.93c-32.365 0-58.622 28.278-58.622 63.134s26.257 63.134 58.622 63.134 58.611-28.278 58.611-63.134-26.246-63.134-58.611-63.134zm0 1.7597c31.481 0 56.977 27.469 56.977 61.374s-25.495 61.374-56.977 61.374-56.988-27.469-56.988-61.374 25.506-61.374 56.988-61.374z" color="#000000" fill="#536c53" opacity=".44" style="block-progression:tb;text-indent:0;text-transform:none"/>
   <path d="m372.06 314.19c-117.08 0-212 94.923-212 212s94.923 212 212 212 211.97-94.923 211.97-212-94.892-212-211.97-212zm0 1c116.54 0 210.97 94.463 210.97 211s-94.432 211-210.97 211-211-94.463-211-211 94.463-211 211-211zm0 183.06c-15.412 0-27.938 12.525-27.938 27.938 0 15.412 12.526 27.906 27.938 27.906s27.906-12.495 27.906-27.906c0-15.412-12.494-27.938-27.906-27.938zm0 1c14.871 0 26.906 12.066 26.906 26.938s-12.035 26.906-26.906 26.906c-14.872 0-26.938-12.035-26.938-26.906s12.067-26.938 26.938-26.938z" color="#000000" fill="#3e4837" opacity=".66" style="block-progression:tb;text-indent:0;text-transform:none"/>
   <path d="m371.55 471.74c-26.833 0-48.594 23.437-48.594 52.335s21.762 52.335 48.594 52.335c26.833 0 48.585-23.437 48.585-52.335s-21.752-52.335-48.585-52.335zm0 0.86136c26.399 0 47.786 23.042 47.786 51.473s-21.386 51.473-47.786 51.473c-26.399 0-47.794-23.042-47.794-51.473s21.395-51.473 47.794-51.473z" color="#000000" fill="#fff" opacity=".22" style="block-progression:tb;text-indent:0;text-transform:none"/>
   <g fill-rule="evenodd" mask="url(#ad)">
    <path d="m388.64 525.6 215.36-17.607l-1.0453-9.9452z" fill="#4154ff" filter="url(#a)" opacity=".66"/>
    <path d="m388.64 525.6 214.14-28.854-1.5643-9.8769z" fill="#4198ff" filter="url(#a)" opacity=".66"/>
    <path d="m388.64 525.6 212.34-40.022-2.0791-9.7815z" fill="#41d1ff" filter="url(#a)" opacity=".66"/>
    <path d="m388.64 525.6 209.95-51.08-2.5882-9.6593z" fill="#41ffd1" filter="url(#z)" opacity=".66"/>
    <path d="m388.64 525.6 199.38-83.295-4.0674-9.1355z" fill="#e0ff41" filter="url(#a)" opacity=".66"/>
    <path d="m388.64 525.6 194.74-93.615-4.5399-8.9101z" fill="#ffd951" filter="url(#a)" opacity=".66"/>
    <path d="m388.64 525.6 189.58-103.68-5-8.6603z" fill="#ff8441" filter="url(#a)" opacity=".66"/>
    <path d="m388.64 525.6 183.89-113.46-5.4464-8.3867z" fill="#ff4141" filter="url(#a)" opacity=".66"/>
    <path d="m388.64 526.76 210.26 49.804 2.0791-9.7815z" fill="#41d1ff" filter="url(#a)" opacity=".66"/>
    <path d="m388.64 526.76 207.36 60.739 2.5882-9.6593z" fill="#41ffd1" filter="url(#a)" opacity=".66"/>
    <path d="m388.64 526.76 203.9 71.509 3.0902-9.5106z" fill="#41ff46" filter="url(#a)" opacity=".66"/>
    <path d="m388.64 526.76 199.88 82.082 3.5837-9.3358z" fill="#a6ff41" filter="url(#a)" opacity=".66"/>
    <path d="m388.64 526.76 195.31 92.43 4.0674-9.1355z" fill="#e0ff41" filter="url(#a)" opacity=".66"/>
    <path d="m388.64 526.76 190.2 102.53 4.5399-8.9101z" fill="#ffd951" filter="url(#a)" opacity=".66"/>
    <path d="m388.64 526.76 184.58 112.34 5-8.6603z" fill="#ff8441" filter="url(#a)" opacity=".66"/>
    <path d="m388.64 526.76 178.45 121.85 5.4464-8.3867z" fill="#ff4141" filter="url(#a)" opacity=".66"/>
    <g fill="#fff" filter="url(#u)">
     <path d="m373.35 529.1 222.8 33.95 1.2867-9.9169z" filter="url(#s)"/>
     <path d="m371.94 529.1 224.41 25.485 0.90818-9.9587z" filter="url(#r)"/>
     <path d="m371.94 529.1 223.59-31.86-1.63-9.87z" filter="url(#q)"/>
    </g>
    <g transform="matrix(.98051 .19645 -.19645 .98051 111.22 -62.437)" fill="#fff" filter="url(#t)" opacity=".66">
     <path d="m373.35 529.1 222.8 33.95 1.2867-9.9169z" filter="url(#s)"/>
     <path d="m371.94 529.1 224.41 25.485 0.90818-9.9587z" filter="url(#r)"/>
     <path d="m371.94 529.1 223.59-31.86-1.63-9.87z" filter="url(#q)"/>
    </g>
    <path transform="matrix(-1 0 0 1 727.95 -.55949)" d="m372.49 526.16 215.36-17.607-1.0453-9.9452z" fill="#4154ff" filter="url(#a)" opacity=".66"/>
    <path transform="matrix(-1 0 0 1 727.95 -.55949)" d="m372.49 526.16 214.14-28.854-1.5643-9.8769z" fill="#4198ff" filter="url(#a)" opacity=".66"/>
    <path transform="matrix(-1 0 0 1 727.95 -.55949)" d="m372.49 526.16 212.34-40.022-2.0791-9.7815z" fill="#41d1ff" filter="url(#a)" opacity=".66"/>
    <path transform="matrix(-1 0 0 1 727.95 -.55949)" d="m372.49 526.16 209.95-51.08-2.5882-9.6593z" fill="#41ffd1" filter="url(#a)" opacity=".66"/>
    <path transform="matrix(-1 0 0 1 727.95 -.55949)" d="m372.49 526.16 206.99-61.998-3.0902-9.5106z" fill="#41ff46" filter="url(#a)" opacity=".66"/>
    <path transform="matrix(-1 0 0 1 727.95 -.55949)" d="m372.49 526.16 203.46-72.746-3.5837-9.3358z" fill="#a6ff41" filter="url(#a)" opacity=".66"/>
    <path transform="matrix(-1 0 0 1 727.95 -.55949)" d="m372.49 526.16 199.38-83.295-4.0674-9.1355z" fill="#e0ff41" filter="url(#a)" opacity=".66"/>
    <path transform="matrix(-1 0 0 1 727.95 -.55949)" d="m372.49 526.16 194.74-93.615-4.5399-8.9101z" fill="#ffd951" filter="url(#a)" opacity=".66"/>
    <path transform="matrix(-1 0 0 1 727.95 -.55949)" d="m372.49 526.16 189.58-103.68-5-8.6603z" fill="#ff8441" filter="url(#a)" opacity=".66"/>
    <path transform="matrix(-1 0 0 1 727.95 -.55949)" d="m372.49 526.16 183.89-113.46-5.4464-8.3867z" fill="#ff4141" filter="url(#a)" opacity=".66"/>
    <path transform="matrix(-1 0 0 1 727.95 -.55949)" d="m372.49 527.32 212.58 38.731 1.5643-9.8769z" fill="#4198ff" filter="url(#a)" opacity=".66"/>
    <path transform="matrix(-1 0 0 1 727.95 -.55949)" d="m372.49 527.32 210.26 49.804 2.0791-9.7815z" fill="#41d1ff" filter="url(#a)" opacity=".66"/>
    <path transform="matrix(-1 0 0 1 727.95 -.55949)" d="m372.49 527.32 207.36 60.739 2.5882-9.6593z" fill="#41ffd1" filter="url(#a)" opacity=".66"/>
    <path transform="matrix(-1 0 0 1 727.95 -.55949)" d="m372.49 527.32 203.9 71.509 3.0902-9.5106z" fill="#41ff46" filter="url(#a)" opacity=".66"/>
    <path transform="matrix(-1 0 0 1 727.95 -.55949)" d="m372.49 527.32 199.88 82.082 3.5837-9.3358z" fill="#a6ff41" filter="url(#a)" opacity=".66"/>
    <path transform="matrix(-1 0 0 1 727.95 -.55949)" d="m372.49 527.32 195.31 92.43 4.0674-9.1355z" fill="#e0ff41" filter="url(#a)" opacity=".66"/>
    <path transform="matrix(-1 0 0 1 727.95 -.55949)" d="m372.49 527.32 190.2 102.53 4.5399-8.9101z" fill="#ffd951" filter="url(#a)" opacity=".66"/>
    <path transform="matrix(-1 0 0 1 727.95 -.55949)" d="m372.49 527.32 184.58 112.34 5-8.6603z" fill="#ff8441" filter="url(#a)" opacity=".66"/>
    <path transform="matrix(-1 0 0 1 727.95 -.55949)" d="m372.49 527.32 178.45 121.85 5.4464-8.3867z" fill="#ff4141" filter="url(#a)" opacity=".66"/>
    <g fill="#fff">
     <path transform="matrix(-.96183 -.27364 .27364 -.96183 584.89 1139.8)" d="m373.35 529.1 222.8 33.95 1.2867-9.9169z" filter="url(#x)"/>
     <path transform="matrix(-.96183 -.27364 .27364 -.96183 584.89 1139.8)" d="m371.94 529.1 224.41 25.485 0.90818-9.9587z" filter="url(#w)"/>
    </g>
    <g transform="matrix(.98041 -.19699 .19699 .98041 -97.223 83.98)" fill="#fff" filter="url(#v)" opacity=".66">
     <path transform="matrix(-.96183 -.27364 .27364 -.96183 584.89 1139.8)" d="m373.35 529.1 222.8 33.95 1.2867-9.9169z" filter="url(#s)"/>
     <path transform="matrix(-.96183 -.27364 .27364 -.96183 584.89 1139.8)" d="m371.94 529.1 224.41 25.485 0.90818-9.9587z" filter="url(#r)"/>
     <path transform="matrix(-.96183 -.27364 .27364 -.96183 584.89 1139.8)" d="m371.94 529.1 223.59-31.86-1.63-9.87z" filter="url(#q)"/>
    </g>
   </g>
   <path transform="translate(123.51,301.69)" d="m248.56 13c-116.8 0-211.5 94.69-211.5 211.5 2e-3 19.12 2.559 37.63 7.315 55.25l137.5-39.5c-1.2-5.06-1.85-10.33-1.85-15.75 0-37.83 30.67-68.5 68.5-68.5 30.14 0 55.71 19.46 64.88 46.5l137.53-39.5c-26.34-86.815-106.96-150-202.38-150z" color="#000000" fill="url(#ac)" filter="url(#aa)"/>
   <text transform="scale(.83004 1.2048)" x="417.55453" y="407.62256" fill="#9a9797" font-family="sans-serif" font-size="13.363px" letter-spacing="0px" stroke-width="1px" word-spacing="0px" style="line-height:125%">
    <tspan x="417.55453" y="407.62256" fill="#9a9797" font-family="Arial" font-style="italic">LaserDisc</tspan>
   </text>
   <ellipse transform="matrix(.93254 0 0 .55569 25.569 340.02)" cx="379.01" cy="765.28" rx="113.14" ry="14.142" color="#000000" filter="url(#y)" opacity=".22"/>
  </g>
 </g>
</svg>
