<?xml version="1.0" encoding="UTF-8"?>
<svg viewBox="0 0 694.75043 630.84705" xmlns="http://www.w3.org/2000/svg">
 <defs>
  <clipPath id="b">
   <path d="m725 240h75v175h-75z"/>
  </clipPath>
  <radialGradient id="a" cx="150" cy="340" r="25" gradientTransform="matrix(.80608 -5.6924e-7 5.4185e-7 .7673 29.087 79.118)" gradientUnits="userSpaceOnUse">
   <stop stop-color="#e6e6e6" offset="0"/>
   <stop stop-color="#e6e6e6" stop-opacity="0" offset="1"/>
  </radialGradient>
 </defs>
 <g transform="translate(-106.25 -63.536)">
  <path d="m125.04 290.04h674.93v403.81h-674.93z" stroke="#000" stroke-dashoffset="279.9" stroke-width="1.0741"/>
  <path d="m125 290h675v100h-675z"/>
  <path d="m125 290 50 100h75l-50-100h-75z" fill="#fff" fill-rule="evenodd" stroke="#000"/>
  <path d="m275 290 50 100h75l-50-100h-75z" fill="#fff" fill-rule="evenodd" stroke="#000"/>
  <path d="m425 290 50 100h75l-50-100h-75z" fill="#fff" fill-rule="evenodd" stroke="#000"/>
  <path d="m575 290 50 100h75l-50-100h-75z" fill="#fff" fill-rule="evenodd" stroke="#000"/>
  <path d="m725 290 50 100h75l-50-100h-75z" clip-path="url(#b)" fill="#fff" fill-rule="evenodd" stroke="#000"/>
  <g transform="matrix(.98445 -.17569 .17569 .98445 -49.445 26.328)" stroke="#000">
   <path transform="matrix(1 -.0027647 .0024727 1 0 0)" d="m124.28 190.4h674.98v101.87h-674.98z" stroke-dasharray="1.01992769, 1.01992769" stroke-dashoffset="10.199" stroke-width="1.0199"/>
   <path d="m125 290 50-100h75l-50 100h-75z" fill="#fff" fill-rule="evenodd"/>
   <path d="m275 290 50-100h75l-50 100h-75z" fill="#fff" fill-rule="evenodd"/>
   <path d="m425 290 50-100h75l-50 100h-75z" fill="#fff" fill-rule="evenodd"/>
   <path d="m575 290 50-100h75l-50 100h-75z" fill="#fff" fill-rule="evenodd"/>
   <path transform="matrix(1,0,0,-1,0,580)" d="m725 290 50 100h75l-50-100h-75z" clip-path="url(#b)" fill="#fff" fill-rule="evenodd"/>
  </g>
  <path transform="scale(.8099 1.2347)" d="m180.22 346.63v-22.431h8.4612c1.4892 2e-5 2.6266 0.07142 3.412 0.2142 1.1016 0.18363 2.0248 0.533 2.7694 1.0481s1.3439 1.2368 1.7978 2.165 0.68086 1.9483 0.68088 3.0601c-2e-5 1.9075-0.60695 3.5217-1.8208 4.8426s-3.407 1.9814-6.5793 1.9814h-5.753v9.1192h-2.9683zm2.9683-11.766h5.7989c1.9177 1e-5 3.2794-0.357 4.0853-1.071s1.2087-1.7188 1.2088-3.0142c-2e-5 -0.93842-0.23717-1.7417-0.71148-2.4098s-1.0991-1.1093-1.8743-1.3235c-0.49984-0.13258-1.423-0.19889-2.7694-0.19891h-5.7377v8.0175zm18.009 11.766v-22.431h9.9454c1.9993 2e-5 3.5191 0.20148 4.5596 0.60437s1.8718 1.1144 2.494 2.1344 0.93332 2.1472 0.93334 3.3814c-2e-5 1.5913-0.51514 2.9326-1.5454 4.0241s-2.6215 1.7851-4.7738 2.0809c0.78541 0.37743 1.3821 0.74974 1.7902 1.117 0.86702 0.79564 1.6882 1.7902 2.4634 2.9836l3.9017 6.105h-3.7334l-2.9683-4.6667c-0.86705-1.3464-1.5811-2.3767-2.1421-3.0907s-1.0634-1.2138-1.5071-1.4995-0.8951-0.48451-1.3541-0.59672c-0.33662-0.0714-0.88744-0.1071-1.6525-0.10711h-3.4426v9.9607h-2.9683zm2.9683-12.531h6.3804c1.3566 1e-5 2.4175-0.14024 3.1825-0.42077s1.3464-0.72931 1.7443-1.3464 0.59671-1.2878 0.59673-2.012c-2e-5 -1.0608-0.38508-1.933-1.1552-2.6164s-1.9865-1.0251-3.6492-1.0251h-7.0995v7.4208zm18.728 1.6066c0-3.7231 0.99964-6.6379 2.9989-8.7443s4.58-3.1596 7.7421-3.1596c2.0707 2e-5 3.9374 0.49474 5.6 1.4842s2.93 2.3691 3.8022 4.1388 1.3082 3.7767 1.3082 6.0208c-3e-5 2.2747-0.45904 4.3097-1.3771 6.105s-2.2186 3.1545-3.9017 4.0776-3.4988 1.3847-5.447 1.3847c-2.1115 0-3.9986-0.51002-5.6612-1.5301s-2.9224-2.4124-3.7792-4.1771-1.2853-3.6313-1.2853-5.6zm3.0601 0.04591c-1e-5 2.7031 0.72677 4.8324 2.1803 6.388s3.2769 2.3333 5.47 2.3333c2.2339 0 4.0725-0.78543 5.5159-2.3563s2.165-3.7996 2.165-6.6864c-2e-5 -1.8259-0.30858-3.4197-0.92569-4.7814s-1.5199-2.4175-2.7082-3.1672-2.5221-1.1246-4.0011-1.1246c-2.1013 2e-5 -3.9093 0.7217-5.4241 2.165s-2.2722 3.8532-2.2721 7.2296zm22.201 10.879v-22.431h7.7268c1.7443 2e-5 3.0754 0.10712 3.9935 0.32131 1.2852 0.29583 2.3818 0.83135 3.2896 1.6066 1.1832 0.99966 2.0681 2.2773 2.6547 3.8328s0.87976 3.333 0.87978 5.3323c-2e-5 1.7035-0.19892 3.2131-0.59672 4.529s-0.90786 2.4048-1.5301 3.2667-1.3031 1.5403-2.0426 2.035-1.6321 0.86958-2.6776 1.1246-2.2467 0.38252-3.6033 0.38252h-8.094zm2.9683-2.647h4.7891c1.479 0 2.6393-0.1377 3.4809-0.41312s1.5122-0.66302 2.012-1.1628c0.70381-0.70383 1.2521-1.6499 1.6448-2.8383s0.58905-2.6292 0.58907-4.3224c-2e-5 -2.3461-0.38508-4.149-1.1552-5.4088s-1.706-2.1038-2.8077-2.5323c-0.79565-0.30599-2.0758-0.459-3.8405-0.45902h-4.7126v17.137zm34.396-19.784h2.9683v12.96c-2e-5 2.2543-0.25503 4.0445-0.76503 5.3705s-1.4306 2.4048-2.7618 3.2361-3.078 1.247-5.2405 1.247c-2.1013 0-3.8201-0.36211-5.1563-1.0863s-2.29-1.7723-2.8612-3.1443-0.85684-3.2463-0.85684-5.623v-12.96h2.9683v12.944c0 1.9483 0.18106 3.384 0.54318 4.3071s0.98433 1.6346 1.8667 2.1344 1.961 0.74974 3.2361 0.74973c2.1829 1e-5 3.7384-0.49471 4.6667-1.4842s1.3923-2.8918 1.3924-5.7071v-12.944zm23.93 14.566 2.9683 0.74973c-0.62224 2.4379-1.7417 4.2969-3.3585 5.5771s-3.5931 1.9202-5.929 1.9202c-2.4175 0-4.3836-0.49217-5.8984-1.4765s-2.6674-2.4098-3.458-4.2765-1.1858-3.871-1.1858-6.0131c-1e-5 -2.3359 0.44626-4.3734 1.3388-6.1126s2.1625-3.0601 3.8099-3.9629 3.4605-1.3541 5.4394-1.3541c2.2441 2e-5 4.1312 0.57125 5.6612 1.7137s2.596 2.749 3.1978 4.8197l-2.9224 0.68852c-0.52024-1.632-1.2751-2.8204-2.2645-3.565s-2.2339-1.1169-3.7334-1.117c-1.7239 2e-5 -3.1647 0.41314-4.3224 1.2394s-1.9712 1.9356-2.4404 3.3279-0.70383 2.8281-0.70383 4.3071c0 1.9075 0.27796 3.5727 0.83388 4.9957s1.4204 2.4864 2.5935 3.1902 2.443 1.0557 3.8099 1.0557c1.6626 0 3.0703-0.47942 4.223-1.4383s1.933-2.3818 2.341-4.2689zm12.348 7.8645v-19.784h-7.3902v-2.647h17.779v2.647h-7.4208v19.784h-2.9683zm13.954 0v-22.431h2.9683v22.431h-2.9683zm7.2831-10.925c0-3.7231 0.99964-6.6379 2.9989-8.7443s4.58-3.1596 7.7421-3.1596c2.0707 2e-5 3.9373 0.49474 5.6 1.4842s2.93 2.3691 3.8022 4.1388 1.3082 3.7767 1.3082 6.0208c-2e-5 2.2747-0.45904 4.3097-1.377 6.105s-2.2186 3.1545-3.9017 4.0776-3.4988 1.3847-5.447 1.3847c-2.1115 0-3.9986-0.51002-5.6612-1.5301s-2.9224-2.4124-3.7793-4.1771-1.2852-3.6313-1.2852-5.6zm3.0601 0.04591c-1e-5 2.7031 0.72677 4.8324 2.1803 6.388s3.2769 2.3333 5.47 2.3333c2.2339 0 4.0725-0.78543 5.5159-2.3563s2.165-3.7996 2.165-6.6864c-2e-5 -1.8259-0.30858-3.4197-0.92569-4.7814s-1.5199-2.4175-2.7082-3.1672-2.5221-1.1246-4.0011-1.1246c-2.1013 2e-5 -3.9093 0.7217-5.4241 2.165s-2.2722 3.8532-2.2721 7.2296zm22.171 10.879v-22.431h3.0448l11.781 17.611v-17.611h2.8459v22.431h-3.0448l-11.781-17.626v17.626h-2.8459z" fill="#fff"/>
  <path transform="scale(.8099 1.2347)" d="m187.63 548.3v-22.431h7.7268c1.7442 2e-5 3.0754 0.10713 3.9935 0.32131 1.2852 0.29584 2.3818 0.83136 3.2896 1.6066 1.1832 0.99966 2.0681 2.2773 2.6547 3.8328s0.87976 3.333 0.87979 5.3323c-3e-5 1.7035-0.19893 3.2131-0.59673 4.529s-0.90786 2.4048-1.5301 3.2667-1.3031 1.5403-2.0426 2.035-1.6321 0.86959-2.6776 1.1246-2.2467 0.38251-3.6033 0.38251h-8.094zm2.9683-2.647h4.7891c1.479 1e-5 2.6393-0.1377 3.4809-0.41311s1.5122-0.66303 2.012-1.1628c0.70381-0.70382 1.2521-1.6499 1.6448-2.8383s0.58905-2.6291 0.58907-4.3224c-2e-5 -2.3461-0.38508-4.149-1.1552-5.4088s-1.706-2.1038-2.8077-2.5322c-0.79565-0.306-2.0758-0.459-3.8405-0.45902h-4.7126v17.137zm17.213 2.647 8.6142-22.431h3.1978l9.1804 22.431h-3.3814l-2.6164-6.7935h-9.3793l-2.4634 6.7935h-3.1519zm6.4722-9.211h7.6044l-2.341-6.2121c-0.71404-1.887-1.2445-3.4375-1.5913-4.6514-0.28562 1.4383-0.68853 2.8663-1.2088 4.2842l-2.4634 6.5793zm22.63 9.211v-19.784h-7.3902v-2.647h17.779v2.647h-7.4208v19.784h-2.9683zm13.51 0v-22.431h16.219v2.647h-13.25v6.87h12.409v2.6317h-12.409v7.635h13.771v2.647h-16.739z" fill="#fff"/>
  <path transform="scale(.8099 1.2347)" d="m203.63 499.94 2.9683 0.74973c-0.62224 2.4379-1.7417 4.2969-3.3585 5.5771s-3.5931 1.9202-5.929 1.9202c-2.4175 0-4.3836-0.49217-5.8984-1.4765s-2.6674-2.4098-3.458-4.2765-1.1858-3.871-1.1858-6.0131c-1e-5 -2.3359 0.44626-4.3734 1.3388-6.1126s2.1625-3.0601 3.8099-3.9629 3.4605-1.3541 5.4394-1.3541c2.2441 2e-5 4.1312 0.57125 5.6612 1.7137s2.596 2.749 3.1978 4.8197l-2.9224 0.68852c-0.52024-1.632-1.2751-2.8204-2.2645-3.565s-2.2339-1.1169-3.7334-1.117c-1.7239 2e-5 -3.1647 0.41314-4.3224 1.2394s-1.9712 1.9356-2.4404 3.3279-0.70383 2.8281-0.70383 4.3071c0 1.9075 0.27796 3.5727 0.83388 4.9957s1.4204 2.4864 2.5935 3.1902 2.443 1.0557 3.8098 1.0557c1.6627 0 3.0703-0.47942 4.223-1.4383s1.933-2.3818 2.341-4.2689zm4.1771 7.8645 8.6142-22.431h3.1978l9.1804 22.431h-3.3814l-2.6164-6.7935h-9.3793l-2.4634 6.7935h-3.1519zm6.4722-9.211h7.6044l-2.341-6.212c-0.71404-1.8871-1.2445-3.4375-1.5913-4.6514-0.28562 1.4383-0.68853 2.8663-1.2088 4.2842l-2.4634 6.5793zm16.831 9.211v-22.431h4.4678l5.3093 15.882c0.4896 1.4791 0.84662 2.5858 1.071 3.3202 0.255-0.81603 0.65281-2.0146 1.1934-3.5956l5.3705-15.607h3.9935v22.431h-2.8612v-18.774l-6.5181 18.774h-2.6776l-6.4875-19.095v19.095h-2.8612zm26.286 0v-22.431h16.219v2.647h-13.25v6.87h12.409v2.6317h-12.409v7.635h13.771v2.647h-16.739zm20.916 0v-22.431h9.9454c1.9993 2e-5 3.5191 0.20148 4.5596 0.60437s1.8718 1.1144 2.494 2.1344 0.93332 2.1472 0.93334 3.3814c-2e-5 1.5913-0.51514 2.9326-1.5454 4.0241s-2.6215 1.7851-4.7738 2.0809c0.78542 0.37743 1.3821 0.74974 1.7902 1.117 0.86702 0.79564 1.6882 1.7902 2.4634 2.9836l3.9017 6.105h-3.7334l-2.9683-4.6667c-0.86705-1.3464-1.5811-2.3767-2.1421-3.0907s-1.0634-1.2138-1.5071-1.4995-0.8951-0.48451-1.3541-0.59672c-0.33663-0.0714-0.88745-0.1071-1.6525-0.10711h-3.4426v9.9607h-2.9683zm2.9683-12.531h6.3804c1.3566 1e-5 2.4175-0.14024 3.1825-0.42077s1.3464-0.72931 1.7443-1.3464 0.5967-1.2878 0.59672-2.012c-2e-5 -1.0608-0.38508-1.933-1.1552-2.6164s-1.9866-1.0251-3.6492-1.0251h-7.0995v7.4208zm17.167 12.531 8.6142-22.431h3.1978l9.1804 22.431h-3.3814l-2.6164-6.7935h-9.3793l-2.4634 6.7935h-3.1519zm6.4722-9.211h7.6044l-2.341-6.212c-0.71404-1.8871-1.2445-3.4375-1.5913-4.6514-0.28562 1.4383-0.68854 2.8663-1.2088 4.2842l-2.4634 6.5793z" fill="#fff"/>
  <path transform="scale(.8099 1.2347)" d="m187.63 467.31v-22.431h7.7268c1.7442 2e-5 3.0754 0.10712 3.9935 0.32131 1.2852 0.29583 2.3818 0.83135 3.2896 1.6066 1.1832 0.99966 2.0681 2.2773 2.6547 3.8328s0.87976 3.333 0.87979 5.3323c-3e-5 1.7035-0.19893 3.2131-0.59673 4.529s-0.90786 2.4048-1.5301 3.2667-1.3031 1.5403-2.0426 2.035-1.6321 0.86958-2.6776 1.1246-2.2467 0.38252-3.6033 0.38252h-8.094zm2.9683-2.647h4.7891c1.479 0 2.6393-0.1377 3.4809-0.41312s1.5122-0.66302 2.012-1.1628c0.70381-0.70383 1.2521-1.6499 1.6448-2.8383s0.58905-2.6292 0.58907-4.3224c-2e-5 -2.3461-0.38508-4.149-1.1552-5.4088s-1.706-2.1038-2.8077-2.5322c-0.79565-0.30599-2.0758-0.459-3.8405-0.45902h-4.7126v17.137zm20.182 2.647v-22.431h2.9683v22.431h-2.9683zm8.2317 0v-22.431h9.9454c1.9993 2e-5 3.5191 0.20148 4.5596 0.60437s1.8718 1.1144 2.494 2.1344 0.93332 2.1472 0.93334 3.3814c-2e-5 1.5913-0.51514 2.9326-1.5454 4.0241s-2.6215 1.7851-4.7738 2.0809c0.78542 0.37743 1.3821 0.74974 1.7902 1.117 0.86702 0.79564 1.6882 1.7902 2.4634 2.9836l3.9017 6.105h-3.7334l-2.9683-4.6667c-0.86705-1.3464-1.5811-2.3767-2.1421-3.0907s-1.0634-1.2138-1.5071-1.4995-0.8951-0.48451-1.3541-0.59672c-0.33663-0.0714-0.88745-0.1071-1.6525-0.10711h-3.4426v9.9607h-2.9683zm2.9683-12.531h6.3804c1.3566 1e-5 2.4175-0.14025 3.1825-0.42077s1.3464-0.72932 1.7443-1.3464 0.5967-1.2878 0.59672-2.012c-2e-5 -1.0608-0.38508-1.933-1.1552-2.6164s-1.9866-1.0251-3.6492-1.0251h-7.0995v7.4208zm19.692 12.531v-22.431h16.219v2.647h-13.25v6.87h12.409v2.6317h-12.409v7.635h13.771v2.647h-16.739zm36.874-7.8645 2.9683 0.74973c-0.62224 2.4379-1.7417 4.2969-3.3585 5.5771s-3.5931 1.9202-5.929 1.9202c-2.4175 0-4.3836-0.49217-5.8984-1.4765s-2.6674-2.4098-3.4579-4.2765-1.1858-3.871-1.1858-6.0132c0-2.3359 0.44626-4.3734 1.3388-6.1126s2.1625-3.0601 3.8099-3.9629 3.4605-1.3541 5.4394-1.3541c2.2441 2e-5 4.1312 0.57124 5.6612 1.7137s2.596 2.749 3.1978 4.8197l-2.9224 0.68852c-0.52024-1.632-1.2751-2.8204-2.2645-3.565s-2.2339-1.1169-3.7334-1.117c-1.7239 2e-5 -3.1647 0.41314-4.3224 1.2394s-1.9712 1.9356-2.4404 3.3279-0.70383 2.8281-0.70383 4.3071c0 1.9075 0.27796 3.5727 0.83389 4.9957s1.4204 2.4864 2.5934 3.1902 2.443 1.0557 3.8099 1.0557c1.6626 0 3.0703-0.47942 4.223-1.4383s1.933-2.3818 2.341-4.2689zm12.348 7.8645v-19.784h-7.3902v-2.647h17.779v2.647h-7.4208v19.784h-2.9683zm12.547-10.925c0-3.7231 0.99963-6.6379 2.9989-8.7443s4.58-3.1596 7.7421-3.1596c2.0707 2e-5 3.9374 0.49474 5.6 1.4842s2.93 2.3691 3.8022 4.1388 1.3082 3.7767 1.3082 6.0208c-2e-5 2.2747-0.45904 4.3097-1.3771 6.105s-2.2186 3.1545-3.9017 4.0776-3.4988 1.3847-5.447 1.3847c-2.1115 0-3.9986-0.51002-5.6612-1.5301s-2.9224-2.4124-3.7792-4.1771-1.2852-3.6313-1.2852-5.6zm3.0601 0.0459c0 2.7031 0.72678 4.8325 2.1803 6.388s3.2769 2.3334 5.47 2.3334c2.2339 0 4.0725-0.78543 5.5159-2.3563s2.165-3.7996 2.165-6.6864c-2e-5 -1.8259-0.30858-3.4197-0.92568-4.7814s-1.5199-2.4175-2.7082-3.1672-2.5221-1.1246-4.0011-1.1246c-2.1013 2e-5 -3.9093 0.7217-5.4241 2.165s-2.2721 3.8532-2.2721 7.2295zm22.247 10.879v-22.431h9.9454c1.9993 2e-5 3.5191 0.20148 4.5596 0.60437s1.8718 1.1144 2.494 2.1344 0.93331 2.1472 0.93333 3.3814c-2e-5 1.5913-0.51514 2.9326-1.5454 4.0241s-2.6215 1.7851-4.7738 2.0809c0.78541 0.37743 1.3821 0.74974 1.7902 1.117 0.86702 0.79564 1.6882 1.7902 2.4634 2.9836l3.9017 6.105h-3.7334l-2.9683-4.6667c-0.86705-1.3464-1.5811-2.3767-2.1421-3.0907s-1.0634-1.2138-1.5071-1.4995-0.8951-0.48451-1.3541-0.59672c-0.33662-0.0714-0.88744-0.1071-1.6525-0.10711h-3.4426v9.9607h-2.9683zm2.9683-12.531h6.3804c1.3566 1e-5 2.4175-0.14025 3.1825-0.42077s1.3464-0.72932 1.7443-1.3464 0.5967-1.2878 0.59672-2.012c-2e-5 -1.0608-0.38508-1.933-1.1552-2.6164s-1.9865-1.0251-3.6492-1.0251h-7.0995v7.4208z" fill="#fff"/>
  <path d="m125 440h675" fill="none" stroke="#fff" stroke-width="2"/>
  <path d="m125 540h675" fill="none" stroke="#fff" stroke-width="2"/>
  <path d="m475 440v100" fill="none" stroke="#fff" stroke-width="2"/>
  <path d="m125 590h675" fill="none" stroke="#fff" stroke-width="2"/>
  <path d="m125 640h675" fill="none" stroke="#fff" stroke-width="2"/>
  <path d="m125 348h150l-150-150v150z" fill="#1a1a1a" fill-rule="evenodd" stroke="#1a1a1a" stroke-linecap="round" stroke-linejoin="round" stroke-width="20"/>
  <path transform="matrix(.70913 0 0 .80608 41.207 63.023)" d="m175 340a25 25 0 1 1 -50 0 25 25 0 1 1 50 0z" fill="url(#a)" opacity=".6"/>
  <path transform="matrix(.70913 0 0 .80608 135.26 63.992)" d="m175 340a25 25 0 1 1 -50 0 25 25 0 1 1 50 0z" fill="url(#a)" opacity=".6"/>
  <path transform="matrix(.70913 0 0 .80608 42.177 -32.966)" d="m175 340a25 25 0 1 1 -50 0 25 25 0 1 1 50 0z" fill="url(#a)" opacity=".6"/>
  <path transform="scale(.8099 1.2347)" d="m187.63 378.3 2.8-0.24481c0.1326 1.1221 0.44116 2.0426 0.92568 2.7618s1.2368 1.3006 2.2568 1.7443 2.1676 0.66558 3.4426 0.66557c1.1322 1e-5 2.1319-0.1683 2.9989-0.50492s1.5122-0.79818 1.9355-1.3847 0.63496-1.2266 0.63497-1.9202c-1e-5 -0.70382-0.20402-1.3184-0.61202-1.8437s-1.0813-0.96648-2.0197-1.3235c-0.60183-0.2346-1.933-0.59926-3.9935-1.094s-3.5038-0.96138-4.3301-1.4c-1.071-0.56101-1.8692-1.2572-2.3946-2.0885s-0.78799-1.7621-0.78798-2.7924c-1e-5 -1.1322 0.32131-2.1905 0.96394-3.1749s1.5811-1.7315 2.8153-2.2415 2.6062-0.76501 4.1159-0.76503c1.6626 2e-5 3.129 0.26778 4.3989 0.80328s2.2466 1.3235 2.9301 2.364 1.0506 2.2186 1.1016 3.5344l-2.8459 0.21421c-0.15302-1.4178-0.67069-2.4889-1.553-3.2131s-2.1854-1.0863-3.9093-1.0864c-1.7953 3e-5 -3.1035 0.32899-3.9246 0.98689s-1.2317 1.451-1.2317 2.3792c0 0.80585 0.29071 1.4689 0.87214 1.9891 0.57122 0.52024 2.063 1.0532 4.4754 1.5989s4.0674 1.0226 4.965 1.4306c1.3056 0.60183 2.2696 1.3643 2.8918 2.2874s0.93332 1.9865 0.93334 3.1902c-2e-5 1.1934-0.34173 2.318-1.0251 3.3738s-1.6652 1.8769-2.9454 2.4634-2.721 0.87978-4.3224 0.87978c-2.0299 0-3.7308-0.29581-5.1028-0.88743s-2.4481-1.4816-3.2284-2.67-1.1909-2.5322-1.2317-4.0317zm37.946-0.65792 2.9683 0.74973c-0.62225 2.4379-1.7417 4.2969-3.3585 5.5771s-3.5931 1.9202-5.929 1.9202c-2.4175 0-4.3836-0.49217-5.8984-1.4765s-2.6674-2.4098-3.4579-4.2765-1.1858-3.871-1.1858-6.0132c0-2.3359 0.44627-4.3734 1.3388-6.1126s2.1625-3.0601 3.8099-3.9629 3.4605-1.3541 5.4394-1.3541c2.2441 2e-5 4.1312 0.57124 5.6612 1.7137s2.596 2.749 3.1978 4.8197l-2.9224 0.68853c-0.52024-1.632-1.2751-2.8204-2.2645-3.565s-2.2339-1.1169-3.7334-1.117c-1.7239 2e-5 -3.1647 0.41314-4.3224 1.2394s-1.9712 1.9356-2.4404 3.3279-0.70383 2.8281-0.70383 4.3071c0 1.9075 0.27796 3.5727 0.83389 4.9957s1.4204 2.4864 2.5934 3.1902 2.443 1.0557 3.8099 1.0557c1.6626 0 3.0703-0.47942 4.223-1.4383s1.933-2.3818 2.341-4.2689zm6.7017 7.8645v-22.431h16.219v2.647h-13.25v6.87h12.409v2.6317h-12.409v7.635h13.771v2.647h-16.739zm20.839 0v-22.431h3.0448l11.781 17.611v-17.611h2.8459v22.431h-3.0448l-11.781-17.626v17.626h-2.8459zm22.737 0v-22.431h16.219v2.647h-13.25v6.87h12.409v2.6317h-12.409v7.635h13.771v2.647h-16.739z" fill="#fff"/>
  <path transform="scale(.8099 1.2347)" d="m625.91 385.13v-19.784h-7.3902v-2.647h17.779v2.647h-7.4208v19.784h-2.9683zm10.986 0 8.6142-22.431h3.1978l9.1804 22.431h-3.3814l-2.6164-6.7935h-9.3793l-2.4634 6.7935h-3.1519zm6.4722-9.211h7.6044l-2.341-6.212c-0.71404-1.8871-1.2445-3.4375-1.5913-4.6514-0.28562 1.4383-0.68854 2.8663-1.2088 4.2842l-2.4634 6.5793zm16.8 9.211v-22.431h2.9683v11.124l11.139-11.124h4.0241l-9.4099 9.0886 9.823 13.342h-3.917l-7.9869-11.353-3.6722 3.5803v7.7727h-2.9683zm21.115 0v-22.431h16.219v2.647h-13.25v6.87h12.409v2.6317h-12.409v7.635h13.771v2.647h-16.739z" fill="#fff"/>
 </g>
</svg>
